# xmcd
#
# Track frame offsets:
#	150
#	12452
#	23694
#	41524
#	56474
#	75300
#	89519
#	100493
#	111792
#	122264
#	136612
#	146900
#	162248
#	176775
#	192293
#	209666
#	222443
#	237797
#	251037
#	264667
#	278703
#
# Disc length: 3968 seconds
#
# Revision: 0
# Processed by: cddbd v1.5.2PL0 Copyright (c) Steve Scherf et al.
# Submitted via: audiograbber 1.83.01
#
DISCID=2b0f7e15
DTITLE=Owen Blundell - The Early days
DYEAR=1900
DGENRE=Country
TTITLE0=Mountains and Valleys
TTITLE1=I'll Crack My Whip Once More
TTITLE2=I'll Fall In Love Every Time
TTITLE3=I'm Coming Home
TTITLE4=Morning Star
TTITLE5=I Can't Help My Self
TTITLE6=Last Of The Wild Mountain Men
TTITLE7=Rainbows Never Touch The Ground
TTITLE8=I Miss My Swiss
TTITLE9=Can't Stop Playing Old Sad Songs
TTITLE10=Polka Yodel
TTITLE11=Would You Love Me Me If You Knew
TTITLE12=Melanie
TTITLE13=Big Rock Candy Mountain
TTITLE14=Country Music Man
TTITLE15=A Letter To Santa
TTITLE16=My Sad and Aching Heart
TTITLE17=Yodel Your Blues Away
TTITLE18=I'm Not That Kind Of Man
TTITLE19=The Convict and The Rose
TTITLE20=Danny Boy
EXTD=
EXTT0=
EXTT1=
EXTT2=
EXTT3=
EXTT4=
EXTT5=
EXTT6=
EXTT7=
EXTT8=
EXTT9=
EXTT10=
EXTT11=
EXTT12=
EXTT13=
EXTT14=
EXTT15=
EXTT16=
EXTT17=
EXTT18=
EXTT19=
EXTT20=
PLAYORDER=
